# xmcd
#
# Track frame offsets:
#	150
#	20091
#	36658
#	56717
#	74636
#	90272
#	105251
#	121841
#	137264
#	157017
#	175008
#	192507
#	209246
#
# Disc length: 3171 seconds
#
# Revision: 2
# Processed by: cddbd v1.5.2PL0 Copyright (c) Steve Scherf et al.
# Submitted via: EasyCDDAExtractor 15.3.0.1
#
DISCID=bb0c610d
DTITLE=Ricardo Montaner - Viajero Frecuente
DYEAR=2012
DGENRE=Latin
TTITLE0=Viajero Frecuente
TTITLE1=La Cancion Que Necesito
TTITLE2=Time
TTITLE3=Ya No Queda Un Alma (Grado 33)
TTITLE4=Voy A Vivir La Vida
TTITLE5=Hazme Regresar
TTITLE6=Convenceme
TTITLE7=Dejame Soñar
TTITLE8=El Centro De La Tierra
TTITLE9=Te Amo Hasta Siempre
TTITLE10=El Piano Nunca Mas
TTITLE11=Hago Una Poesia
TTITLE12=La Gloria De Dios
EXTD=
EXTT0=
EXTT1=
EXTT2=
EXTT3=
EXTT4=
EXTT5=
EXTT6=
EXTT7=
EXTT8=
EXTT9=
EXTT10=
EXTT11=
EXTT12=
PLAYORDER=
